<svg xmlns="http://www.w3.org/2000/svg" xmlns:xlink="http://www.w3.org/1999/xlink" viewBox="0 0 500 500"><defs><clipPath id="freepik--clip-path--inject-32"><rect x="69.07" y="49.14" width="316.68" height="182.01" style="fill:#92E3A9;stroke:#263238;stroke-linecap:round;stroke-linejoin:round"></rect></clipPath><clipPath id="freepik--clip-path-2--inject-32"><rect x="88.57" y="54.01" width="27.54" height="8.68" style="fill:#92E3A9;stroke:#263238;stroke-linecap:round;stroke-linejoin:round"></rect></clipPath><clipPath id="freepik--clip-path-3--inject-32"><rect x="351.57" y="54.01" width="8.68" height="8.68" style="fill:#92E3A9;stroke:#263238;stroke-linecap:round;stroke-linejoin:round"></rect></clipPath><clipPath id="freepik--clip-path-4--inject-32"><rect x="362.27" y="54.01" width="8.68" height="8.68" style="fill:#92E3A9;stroke:#263238;stroke-linecap:round;stroke-linejoin:round"></rect></clipPath><clipPath id="freepik--clip-path-5--inject-32"><rect x="176.91" y="332.53" width="11.86" height="90.23" transform="translate(365.68 755.29) rotate(180)" style="fill:#fff;stroke:#263238;stroke-linecap:round;stroke-linejoin:round"></rect></clipPath><clipPath id="freepik--clip-path-6--inject-32"><path d="M149.69,412.21H216a8.73,8.73,0,0,1,8.73,8.73v1.82H141v-1.82A8.73,8.73,0,0,1,149.69,412.21Z" style="fill:#fff;stroke:#263238;stroke-linecap:round;stroke-linejoin:round"></path></clipPath><clipPath id="freepik--clip-path-7--inject-32"><rect x="141.44" y="287.41" width="11.86" height="31.75" transform="translate(294.74 606.58) rotate(180)" style="fill:#fff;stroke:#263238;stroke-linecap:round;stroke-linejoin:round"></rect></clipPath><clipPath id="freepik--clip-path-8--inject-32"><path d="M136.59,324.65a371.76,371.76,0,0,0,92.49,0,4.63,4.63,0,0,0,4-5.21l-.75-4.78a4.63,4.63,0,0,0-5.24-3.82,360.47,360.47,0,0,1-88.56,0,4.63,4.63,0,0,0-5.24,3.82l-.75,4.78A4.63,4.63,0,0,0,136.59,324.65Z" style="fill:#263238;stroke:#263238;stroke-linecap:round;stroke-linejoin:round"></path></clipPath><clipPath id="freepik--clip-path-9--inject-32"><path d="M136.87,295.93,164.16,292c6.93-1,11.51-7.12,10.43-13.49A209.12,209.12,0,0,1,172.07,230a12,12,0,0,0-10.54-12.47l-22.69-3.25c-6.52-.93-12.89,4-14,11.19a246,246,0,0,0-2.11,58.2C123.36,291.33,130,296.91,136.87,295.93Z" style="fill:#263238;stroke:#263238;stroke-linecap:round;stroke-linejoin:round"></path></clipPath><clipPath id="freepik--clip-path-10--inject-32"><path d="M248.43,388.39c1.72,1.49,2.41,4.55,2.41,4.55s8.86,4.6,9,.8c.11-2.57,2.65-3.66,4.27-4.1l13.39,13.5s8.53,4.16,9.25,7.9-3.34,6.57-13.46,3.74-11.51-6.25-15.32-7.91-14.33-2.84-13.87-7.77C244.46,395.61,247,390.87,248.43,388.39Z" style="fill:#92E3A9;stroke:#263238;stroke-linecap:round;stroke-linejoin:round"></path></clipPath><clipPath id="freepik--clip-path-11--inject-32"><path d="M178.32,286.36s75-5,78.38,5.56,5,44.48,5.2,57.93-.9,30.49-.9,30.49a23.92,23.92,0,0,1-13.81,0s-3.29-19.55-5.68-29.06-4.9-22.17-3.46-42.2c0,0-71.83,10.82-72.24-1.74S178.32,286.36,178.32,286.36Z" style="fill:#fff;stroke:#263238;stroke-linecap:round;stroke-linejoin:round"></path></clipPath><clipPath id="freepik--clip-path-12--inject-32"><path d="M178.32,286.36s75-5,78.38,5.56,5,44.48,5.2,57.93-.9,30.49-.9,30.49a23.92,23.92,0,0,1-13.81,0s-3.29-19.55-5.68-29.06-4.9-22.17-3.46-42.2c0,0-71.83,10.82-72.24-1.74S178.32,286.36,178.32,286.36Z" style="opacity:0.5"></path></clipPath><clipPath id="freepik--clip-path-13--inject-32"><path d="M262.74,376.05l-.51,5.07s-8.58,4.6-16.12.34l-1.58-5S249.64,380,262.74,376.05Z" style="fill:#fff;stroke:#263238;stroke-linecap:round;stroke-linejoin:round"></path></clipPath><clipPath id="freepik--clip-path-14--inject-32"><path d="M173.52,388.1c-.77-4.08-5.12-12.6-.77-15a39.75,39.75,0,0,1,9-3.17,8.65,8.65,0,0,1-1.39,3.17s-.17,3.07,1,4.43,4.26-1.7,8.69,0c2.05.79,2.82,1.79,3.06,2.64L193,382h0l-1.71,20.2s3.91,11.36,1.21,14.06-13.57-1-16.89-11S174.28,392.19,173.52,388.1Z" style="fill:#92E3A9;stroke:#263238;stroke-linecap:round;stroke-linejoin:round"></path></clipPath><clipPath id="freepik--clip-path-15--inject-32"><path d="M152.5,289.18s-10.63,21.26,2.95,23.14,55.16-.54,55.16-.54a210.54,210.54,0,0,0-13.81,26.05C191.42,350.57,186,363.66,186,363.66s2.34,6.28,11.84,7.53c0,0,7.71-12,24.57-30.85s21.53-37.66,17.94-44.12-22.24-10-52.37-11.34Z" style="fill:#fff;stroke:#263238;stroke-linecap:round;stroke-linejoin:round"></path></clipPath><clipPath id="freepik--clip-path-16--inject-32"><path d="M152.5,289.18s-10.63,21.26,2.95,23.14,55.16-.54,55.16-.54a210.54,210.54,0,0,0-13.81,26.05C191.42,350.57,186,363.66,186,363.66s2.34,6.28,11.84,7.53c0,0,7.71-12,24.57-30.85s21.53-37.66,17.94-44.12-22.24-10-52.37-11.34Z" style="opacity:0.5"></path></clipPath><clipPath id="freepik--clip-path-17--inject-32"><path d="M201.1,369.4l-3.23,3.94s-9.68-.89-13.63-8.6l1.44-5S188,365.45,201.1,369.4Z" style="fill:#fff;stroke:#263238;stroke-linecap:round;stroke-linejoin:round"></path></clipPath><clipPath id="freepik--clip-path-18--inject-32"><path d="M214.72,270.44s-5.63-3.65-10.95,2.2l-3.32-3.9s4-3.54,8.39-3.66,5.88,1.46,5.88,1.46Z" style="fill:#92E3A9;stroke:#263238;stroke-linecap:round;stroke-linejoin:round"></path></clipPath><clipPath id="freepik--clip-path-19--inject-32"><path d="M202.4,250.68c-.25-11.71,2.93-26.11-3.42-33.92,0,0,.25-12.2-9.27-16.84s-33.19-6.83-39.29-1.95c-5.13,4.11,1.94,45,3,75.45.19,5.75-1.74,11.13-2,15.81,0,0,1.95,3.66,11.71,0s37.82-4.75,37.82-4.75S202.64,262.39,202.4,250.68Z" style="fill:#92E3A9;stroke:#263238;stroke-linecap:round;stroke-linejoin:round"></path></clipPath><clipPath id="freepik--clip-path-20--inject-32"><path d="M188,199.17c1.54,3,3.84,8.18,3,10.19-1.3,2.93-4.56-3.58-6.35-3.26s-3.25,4.45-6.67,4c-3.15-.4-7.83-9.86-15.06-14.89C171.32,195.07,181.68,196.68,188,199.17Z" style="fill:#92E3A9;stroke:#263238;stroke-linecap:round;stroke-linejoin:round"></path></clipPath><clipPath id="freepik--clip-path-21--inject-32"><path d="M191.54,278.33s4.66,2.16,6.18,2.93c.49.25,2.73,1.1,1.1,1.87-1.4.66-5.82-1.58-5.82-1.58l-4.27-.86Z" style="fill:#fff;stroke:#263238;stroke-linecap:round;stroke-linejoin:round"></path></clipPath><clipPath id="freepik--clip-path-22--inject-32"><path d="M175.75,267s-4.88,1.59-7.93,8.91l-4.51-1.35s.85-6.58,9.51-11.34Z" style="fill:#92E3A9;stroke:#263238;stroke-linecap:round;stroke-linejoin:round"></path></clipPath><clipPath id="freepik--clip-path-23--inject-32"><path d="M185.06,199.14c1.14,1.39,4.24,5.83-2.75,5.66s-17.57-9.58-17.57-9.58,4.23-1.64,7-8.15c1.21-2.84,3.91-11.71,3.91-11.71l10.7,11.55L183,196.18S184.6,198.58,185.06,199.14Z" style="fill:#fff;stroke:#263238;stroke-linecap:round;stroke-linejoin:round"></path></clipPath><clipPath id="freepik--clip-path-24--inject-32"><path d="M210.74,285.82h37.34a3.66,3.66,0,0,0,3.19-1.88l19.15-34.58a1.42,1.42,0,0,0-1.24-2.1H231.39a4.31,4.31,0,0,0-3.74,2.2L209.08,283A1.9,1.9,0,0,0,210.74,285.82Z" style="fill:#fff;stroke:#263238;stroke-linecap:round;stroke-linejoin:round"></path></clipPath><clipPath id="freepik--clip-path-25--inject-32"><path d="M178.24,285.82h28.12a1.16,1.16,0,0,0,1.16-1.16v-1.53h-32A2.68,2.68,0,0,0,178.24,285.82Z" style="fill:#fff;stroke:#263238;stroke-linecap:round;stroke-linejoin:round"></path></clipPath></defs><g id="freepik--Page--inject-32"><rect x="69.07" y="49.14" width="316.68" height="182.01" style="fill:#92E3A9"></rect><g style="clip-path:url(#freepik--clip-path--inject-32)"><rect x="69.07" y="49.14" width="316.68" height="182.01" style="fill:#fff;opacity:0.6000000000000001"></rect></g><rect x="69.07" y="49.14" width="316.68" height="182.01" style="fill:none;stroke:#263238;stroke-linecap:round;stroke-linejoin:round"></rect><rect x="69.07" y="49.14" width="316.68" height="18.43" style="fill:#263238;stroke:#263238;stroke-linecap:round;stroke-linejoin:round"></rect><rect x="88.57" y="54.01" width="149.15" height="8.68" style="fill:#fff;stroke:#263238;stroke-linecap:round;stroke-linejoin:round"></rect><rect x="88.57" y="54.01" width="27.54" height="8.68" style="fill:#92E3A9"></rect><g style="clip-path:url(#freepik--clip-path-2--inject-32)"><rect x="88.57" y="54.01" width="27.54" height="8.68" style="fill:#fff;stroke:#263238;stroke-linecap:round;stroke-linejoin:round;opacity:0.5"></rect></g><rect x="88.57" y="54.01" width="27.54" height="8.68" style="fill:none;stroke:#263238;stroke-linecap:round;stroke-linejoin:round"></rect><rect x="139" y="159.83" width="105.39" height="8.68" style="fill:#fff;stroke:#263238;stroke-linecap:round;stroke-linejoin:round"></rect><rect x="299.17" y="177.74" width="82.8" height="8.68" style="fill:#fff;stroke:#263238;stroke-linecap:round;stroke-linejoin:round"></rect><rect x="299.17" y="195.17" width="82.8" height="8.68" style="fill:#fff;stroke:#263238;stroke-linecap:round;stroke-linejoin:round"></rect><rect x="299.17" y="212.6" width="82.8" height="8.68" style="fill:#fff;stroke:#263238;stroke-linecap:round;stroke-linejoin:round"></rect><rect x="139" y="159.83" width="27.54" height="8.68" style="fill:#92E3A9;stroke:#263238;stroke-linecap:round;stroke-linejoin:round"></rect><rect x="139" y="177.74" width="149.15" height="43.54" style="fill:#fff;opacity:0.7000000000000001"></rect><rect x="139" y="74.08" width="242.66" height="14.13" style="fill:#fff;stroke:#263238;stroke-linecap:round;stroke-linejoin:round"></rect><rect x="139" y="94.71" width="242.66" height="55.88" style="fill:#fff;opacity:0.5"></rect><rect x="139" y="74.08" width="44.81" height="14.13" style="fill:#92E3A9;stroke:#263238;stroke-linecap:round;stroke-linejoin:round"></rect><rect x="142.25" y="99.42" width="30.03" height="9.47" style="fill:#92E3A9;stroke:#263238;stroke-linecap:round;stroke-linejoin:round"></rect><rect x="299.17" y="163.77" width="30.03" height="9.47" style="fill:#92E3A9;stroke:#263238;stroke-linecap:round;stroke-linejoin:round"></rect><rect x="77.39" y="138.85" width="30.03" height="9.47" style="fill:#92E3A9;stroke:#263238;stroke-linecap:round;stroke-linejoin:round"></rect><rect x="142.25" y="113.42" width="189.09" height="4.73" style="fill:#fff;stroke:#263238;stroke-linecap:round;stroke-linejoin:round"></rect><rect x="77.74" y="152.71" width="21.34" height="4.73" style="fill:#fff;stroke:#263238;stroke-linecap:round;stroke-linejoin:round"></rect><rect x="77.39" y="166.17" width="30.03" height="9.47" style="fill:#92E3A9;stroke:#263238;stroke-linecap:round;stroke-linejoin:round"></rect><rect x="77.74" y="180.03" width="26.76" height="4.73" style="fill:#fff;stroke:#263238;stroke-linecap:round;stroke-linejoin:round"></rect><rect x="77.74" y="189.16" width="23.51" height="4.73" style="fill:#fff;stroke:#263238;stroke-linecap:round;stroke-linejoin:round"></rect><rect x="77.74" y="198.29" width="18.08" height="4.73" style="fill:#fff;stroke:#263238;stroke-linecap:round;stroke-linejoin:round"></rect><rect x="77.74" y="207.42" width="26.76" height="4.73" style="fill:#fff;stroke:#263238;stroke-linecap:round;stroke-linejoin:round"></rect><rect x="77.74" y="216.54" width="21.34" height="4.73" style="fill:#fff;stroke:#263238;stroke-linecap:round;stroke-linejoin:round"></rect><rect x="142.25" y="122.68" width="204.28" height="4.73" style="fill:#fff;stroke:#263238;stroke-linecap:round;stroke-linejoin:round"></rect><rect x="142.25" y="131.95" width="181.14" height="4.73" style="fill:#fff;stroke:#263238;stroke-linecap:round;stroke-linejoin:round"></rect><rect x="142.25" y="141.21" width="199.22" height="4.73" style="fill:#fff;stroke:#263238;stroke-linecap:round;stroke-linejoin:round"></rect><rect x="372.98" y="54.01" width="8.68" height="8.68" style="fill:#92E3A9;stroke:#263238;stroke-linecap:round;stroke-linejoin:round"></rect><rect x="351.57" y="54.01" width="8.68" height="8.68" style="fill:#92E3A9"></rect><g style="clip-path:url(#freepik--clip-path-3--inject-32)"><rect x="351.57" y="54.01" width="8.68" height="8.68" style="fill:#fff;opacity:0.6000000000000001"></rect></g><rect x="351.57" y="54.01" width="8.68" height="8.68" style="fill:none;stroke:#263238;stroke-linecap:round;stroke-linejoin:round"></rect><rect x="362.27" y="54.01" width="8.68" height="8.68" style="fill:#92E3A9"></rect><g style="clip-path:url(#freepik--clip-path-4--inject-32)"><rect x="362.27" y="54.01" width="8.68" height="8.68" style="fill:#fff;opacity:0.4"></rect></g><rect x="362.27" y="54.01" width="8.68" height="8.68" style="fill:none;stroke:#263238;stroke-linecap:round;stroke-linejoin:round"></rect><rect x="77.39" y="74.08" width="56.12" height="56.12" style="fill:#fff"></rect><path d="M103.67,82.32s-9.75-.36-8.48,2.55S89,88.43,90.8,91.61s-3.39,7.49-.77,9.17,1.41,4.85.16,6.52,2,3.84,4.57,3.81-1,3,0,3.73,2.45-1.85,4.36-1.31,6.24-1.12,7.42-.66,16.67,1.37,16.81.32-1.43-1.23-1.1-2.26,2.87,0,3.39-2.21-1.47-3.24-1.17-5.39,1.91-1.19,2.27-4.13-3.9-3.85-4-5.35,4.07-1,2.85-3.82-5.67-2.36-6.65-4,2.67-1.46.31-3.69S107.46,78.7,103.67,82.32Z" style="fill:#263238;stroke:#263238;stroke-linecap:round;stroke-linejoin:round"></path><path d="M93.25,105.75c-1.13,2.4,1,2.82,2.92,3.47s.81,3.48.81,3.48" style="fill:none;stroke:#7f7f7f;stroke-linecap:round;stroke-linejoin:round;stroke-width:0.75px"></path><path d="M92.22,100.54a5.78,5.78,0,0,1,1.34,4.19" style="fill:none;stroke:#7f7f7f;stroke-linecap:round;stroke-linejoin:round;stroke-width:0.75px"></path><path d="M92.79,93c-.17,2.28-2.41,5.57-1.4,6.59" style="fill:none;stroke:#7f7f7f;stroke-linecap:round;stroke-linejoin:round;stroke-width:0.75px"></path><path d="M96.4,87.64s-5.05,2-3.85,4" style="fill:none;stroke:#7f7f7f;stroke-linecap:round;stroke-linejoin:round;stroke-width:0.75px"></path><path d="M96.57,85.32c.26.5,1,.54,1,1.25" style="fill:none;stroke:#7f7f7f;stroke-linecap:round;stroke-linejoin:round;stroke-width:0.75px"></path><path d="M102.91,83.43s-6.12-.06-6.39,1.19" style="fill:none;stroke:#7f7f7f;stroke-linecap:round;stroke-linejoin:round;stroke-width:0.75px"></path><path d="M124.43,98.51c-.48,1.36-3.24,4-2.16,6.36s1.87,3.25-.11,3.82" style="fill:none;stroke:#7f7f7f;stroke-linecap:round;stroke-linejoin:round;stroke-width:0.75px"></path><path d="M122.61,90.62c-.41,1.47-2.84,1.27-2.53,3.78.21,1.78,2.53,2.41,3.71,3.11" style="fill:none;stroke:#7f7f7f;stroke-linecap:round;stroke-linejoin:round;stroke-width:0.75px"></path><path d="M117.09,85.34c0,1.87-1.78,2.13.69,3.53a7.41,7.41,0,0,0,3.55.95" style="fill:none;stroke:#7f7f7f;stroke-linecap:round;stroke-linejoin:round;stroke-width:0.75px"></path><path d="M104.79,83.64s10.72-3,12,.25" style="fill:none;stroke:#7f7f7f;stroke-linecap:round;stroke-linejoin:round;stroke-width:0.75px"></path><path d="M119.68,108.75c-.48,1.36,1,3.25,1,3.25" style="fill:none;stroke:#7f7f7f;stroke-linecap:round;stroke-linejoin:round;stroke-width:0.75px"></path><path d="M118.24,91.88c.21,1.62-1.38,2.24-1,4s3.46,1.38,3.61,2.7-2.45,2.78-1.85,5.41c.31,1.31.6,2.17.76,2.88" style="fill:none;stroke:#7f7f7f;stroke-linecap:round;stroke-linejoin:round;stroke-width:0.75px"></path><path d="M114.26,89c.37,1.56,1.75,1.68,2.78,1.94" style="fill:none;stroke:#7f7f7f;stroke-linecap:round;stroke-linejoin:round;stroke-width:0.75px"></path><path d="M114.9,86.08a5.83,5.83,0,0,1-.55,1.54" style="fill:none;stroke:#7f7f7f;stroke-linecap:round;stroke-linejoin:round;stroke-width:0.75px"></path><path d="M103.36,84.92s10.5-2.74,11.37-.15" style="fill:none;stroke:#7f7f7f;stroke-linecap:round;stroke-linejoin:round;stroke-width:0.75px"></path><path d="M115.64,103.38c.23,1,1.29,1.74,1.26,3.11-.05,1.84-.83,3.08,0,4.75" style="fill:none;stroke:#7f7f7f;stroke-linecap:round;stroke-linejoin:round;stroke-width:0.75px"></path><path d="M111.57,89.46a5.47,5.47,0,0,0,2.37,3.65c1.56,1.09,1.07,3.24,2,4.68s.54,3-.2,4.55" style="fill:none;stroke:#7f7f7f;stroke-linecap:round;stroke-linejoin:round;stroke-width:0.75px"></path><path d="M101.48,86.14s9.42-.69,9.83,2" style="fill:none;stroke:#7f7f7f;stroke-linecap:round;stroke-linejoin:round;stroke-width:0.75px"></path><path d="M98.85,85.6s.44-1.35,2.74-.44" style="fill:none;stroke:#7f7f7f;stroke-linecap:round;stroke-linejoin:round;stroke-width:0.75px"></path><path d="M92.78,117.65c3.8-1.08,9.33-2.92,16-2.92,4.29,0,8.09,1.27,11.44,2.07,3.57.86,8.35,1.08,6.21,13.32h-38S87.17,119.23,92.78,117.65Z" style="fill:#92E3A9;stroke:#263238;stroke-linecap:round;stroke-linejoin:round"></path><path d="M112.34,112.08l-2-8.09-5.5,1.66-1.65,6.56a4.43,4.43,0,0,1-2.37,2.92,13.6,13.6,0,0,0-2.35,1.38s6.53,8.91,19.06,0a13.1,13.1,0,0,0-2.68-1.5A4.32,4.32,0,0,1,112.34,112.08Z" style="fill:#fff;stroke:#263238;stroke-linecap:round;stroke-linejoin:round"></path><path d="M95.23,92l-.72,4.79a3.49,3.49,0,0,0,.12,1.51l.42,1.32-.25,3.12a4,4,0,0,0,0,.49c.11,1.6.88,10.1,5.5,10.46,4.1.31,8.18-4.76,9.63-6.77a4.93,4.93,0,0,0,.77-1.66l.62-2.44a2.77,2.77,0,0,0,2.62-1.92c.62-2,1.65-3.24-.34-4.21s-2.7,1.78-2.7,1.78a19.65,19.65,0,0,0-1.06-4.16c-.48-.81-2.24-1.8-2.76-2.59a11.7,11.7,0,0,1-.7-1.94s-6,1.16-10.65.23Z" style="fill:#fff;stroke:#263238;stroke-linecap:round;stroke-linejoin:round"></path><path d="M98,100.38l-1.64,4a.89.89,0,0,0,.76,1.22l2,.13" style="fill:none;stroke:#263238;stroke-linecap:round;stroke-linejoin:round"></path><path d="M104.14,106.43c-1.31,2.22-2.9,1.75-3.87,1.13" style="fill:none;stroke:#263238;stroke-linecap:round;stroke-linejoin:round"></path><path d="M100.48,99.9c0,.68.26,1.23.57,1.23s.58-.55.58-1.23-.26-1.24-.58-1.24S100.48,99.22,100.48,99.9Z" style="fill:#263238"></path><path d="M95.68,99.9c0,.68.26,1.23.57,1.23s.58-.55.58-1.23-.26-1.24-.58-1.24S95.68,99.22,95.68,99.9Z" style="fill:#263238"></path><path d="M100.27,97.18a3,3,0,0,1,3.57,1.48" style="fill:none;stroke:#263238;stroke-linecap:round;stroke-linejoin:round"></path><path d="M97.3,97S95.52,96,94.63,98.29" style="fill:none;stroke:#263238;stroke-linecap:round;stroke-linejoin:round"></path><path d="M95.38,88.82s1.49,5.55,4.16,6.19,4.58,1.06,5.12,3.41,3.63,2.77,4.91,4.48-1,8.68,1.81,9.68a10.29,10.29,0,0,1,0-4.8c.64-2.53,2.29-5,1.09-9.47s-6.53-9.49-6.53-9.49l-5.37-.64Z" style="fill:#263238;stroke:#263238;stroke-linecap:round;stroke-linejoin:round"></path><path d="M97.79,89.78a7.6,7.6,0,0,0,5.27,3.36c3.68.57,3.68,4.69,5.39,5.83s3.72,1.41,2.7,6.71" style="fill:none;stroke:#7f7f7f;stroke-linecap:round;stroke-linejoin:round;stroke-width:0.75px"></path></g></svg>
