<svg xmlns="http://www.w3.org/2000/svg" viewBox="0 0 500 500"><g id="freepik--landing-page--inject-41"><rect x="43" y="92.66" width="414" height="261.39" style="fill:#407BFF"></rect><rect x="43" y="92.66" width="414" height="261.39" style="fill:#fff;opacity:0.6000000000000001"></rect><rect x="45.67" y="89.77" width="408.67" height="261.7" style="fill:#407BFF"></rect><rect x="45.67" y="89.77" width="408.67" height="261.7" style="fill:#fff;opacity:0.8"></rect><path d="M338,338.74c-1.77,0-3.57,0-5.39-.11-36-1.5-59.19-16.59-83.79-32.56-10.61-6.89-21.58-14-34.07-20.43-21.35-11-36.28-5.91-52.09-.56-10.41,3.52-21.16,7.16-34.26,6.32-15.07-1-26.29-6.53-33.34-16.54-10.9-15.47-9.6-39-4.76-55.88,9.59-33.39,32.32-59.24,65.73-74.74,31.89-14.81,72.28-19.82,116.78-14.49,58.47,7,110,35.51,134.36,74.4,16.25,25.91,19.58,54.93,9.62,83.93C405.67,320.47,377.11,338.74,338,338.74ZM189.92,278.63c7.53,0,15.68,1.75,25.06,6.57,12.51,6.42,23.49,13.55,34.11,20.45,24.54,15.93,47.72,31,83.54,32.48,41.64,1.74,72.14-16.57,83.69-50.21,9.91-28.86,6.6-57.73-9.58-83.5-24.32-38.77-75.67-67.19-134-74.17-93.29-11.17-163,22.88-182,88.87-4.81,16.76-6.11,40.13,4.69,55.45,7,9.89,18,15.38,33,16.33,13,.83,23.7-2.79,34.06-6.3C171.48,281.57,180.18,278.63,189.92,278.63Z" style="fill:#fff;opacity:0.30000000000000004"></path><path d="M417.91,169.91c26,39.68,20.93,98.42-29.05,132.82-54.48,37.5-106.36,27.75-132.9-11.32s-14.86-88.83,26.82-124.53S390.4,127.9,417.91,169.91Z" style="fill:#fff"></path><g style="opacity:0.5"><rect x="71.02" y="104.97" width="23.97" height="3.2" rx="1.45" style="fill:#407BFF"></rect><rect x="118.95" y="104.97" width="23.97" height="3.2" rx="1.45" style="fill:#407BFF"></rect><rect x="166.89" y="104.97" width="23.97" height="3.2" rx="1.45" style="fill:#407BFF"></rect><rect x="214.83" y="104.97" width="23.97" height="3.2" rx="1.45" style="fill:#407BFF"></rect></g><rect x="390.78" y="104.97" width="43.54" height="5.82" rx="2.63" style="fill:#407BFF"></rect><rect x="71.02" y="151.86" width="124.16" height="12.15" rx="6.07" style="fill:#fff"></rect><rect x="71.02" y="176.21" width="153.76" height="25.39" rx="5.42" style="fill:#fff"></rect><rect x="71.02" y="211.94" width="108.64" height="25.39" rx="5.42" style="fill:#fff"></rect><path d="M175.57,254.7H73.26A2.24,2.24,0,0,1,71,252.45h0a2.24,2.24,0,0,1,2.24-2.24H175.57a2.24,2.24,0,0,1,2.24,2.24h0A2.24,2.24,0,0,1,175.57,254.7Z" style="fill:#407BFF;opacity:0.30000000000000004"></path><path d="M144.23,263.36h-71A2.24,2.24,0,0,1,71,261.12h0a2.24,2.24,0,0,1,2.24-2.24h71a2.24,2.24,0,0,1,2.24,2.24h0A2.24,2.24,0,0,1,144.23,263.36Z" style="fill:#407BFF;opacity:0.30000000000000004"></path><rect x="71.02" y="284.91" width="100.64" height="30.38" rx="15.19" style="fill:#407BFF;opacity:0.1"></rect><path d="M155.26,312.32h-68A14.71,14.71,0,0,1,72.5,297.61h0a14.71,14.71,0,0,1,14.71-14.7h68.05A14.71,14.71,0,0,1,170,297.61h0A14.71,14.71,0,0,1,155.26,312.32Z" style="fill:#407BFF"></path><path d="M138.17,301.51H104.3a3.9,3.9,0,0,1-3.9-3.9h0a3.9,3.9,0,0,1,3.9-3.89h33.87a3.89,3.89,0,0,1,3.9,3.89h0A3.89,3.89,0,0,1,138.17,301.51Z" style="fill:#fff;opacity:0.4"></path><path d="M291.9,133a16,16,0,0,1-28,14.1,15.74,15.74,0,0,0,8.12,0,16,16,0,0,0,8.42-25.51A16,16,0,0,1,291.9,133Z" style="fill:#fff"></path><circle cx="437.17" cy="179.89" r="0.89" style="fill:#fff;opacity:0.6000000000000001"></circle><path d="M371.42,132.18a.89.89,0,1,1-.89-.89A.89.89,0,0,1,371.42,132.18Z" style="fill:#fff;opacity:0.6000000000000001"></path><circle cx="302.5" cy="145.57" r="0.89" style="fill:#fff;opacity:0.6000000000000001"></circle><circle cx="341.26" cy="171.81" r="0.89" style="fill:#407BFF;opacity:0.6000000000000001"></circle><path d="M413.44,218.33a.89.89,0,1,1-.89-.89A.89.89,0,0,1,413.44,218.33Z" style="fill:#407BFF;opacity:0.6000000000000001"></path><path d="M328.55,127.94c-2.63.89-3.35,1.61-4.24,4.24-.89-2.63-1.61-3.35-4.24-4.24,2.63-.89,3.35-1.61,4.24-4.24C325.2,126.33,325.92,127.05,328.55,127.94Z" style="fill:#fff;opacity:0.7000000000000001"></path><circle cx="418.97" cy="144.69" r="2.71" style="fill:#fff;opacity:0.7000000000000001"></circle><path d="M250.92,157.93a3.41,3.41,0,0,0-2.71,2.71,3.41,3.41,0,0,0-2.71-2.71,3.41,3.41,0,0,0,2.71-2.71A3.41,3.41,0,0,0,250.92,157.93Z" style="fill:#fff;opacity:0.7000000000000001"></path><path d="M313.68,172.39c-2.08.7-2.64,1.27-3.35,3.35-.7-2.08-1.27-2.65-3.35-3.35,2.08-.7,2.65-1.27,3.35-3.35C311,171.12,311.6,171.69,313.68,172.39Z" style="fill:#407BFF;opacity:0.7000000000000001"></path><circle cx="346.52" cy="145.57" r="1.57" style="fill:#407BFF;opacity:0.7000000000000001"></circle><path d="M382.11,241.7c.4-1.47,7.13-.92,15,1.23s14,5.1,13.58,6.57l8.31,2.27c.64-2.32-9-7-21.47-10.38s-23.13-4.29-23.76-2Z" style="fill:#407BFF"></path><path d="M385.79,238.82a108.31,108.31,0,0,1,11.77,2.57A112.74,112.74,0,0,1,409,245.15a13.31,13.31,0,0,1,.07,2.45,48.58,48.58,0,0,0-11.95-4.67c-5.22-1.42-9.94-2.15-12.65-2.05A12.14,12.14,0,0,1,385.79,238.82Z" style="opacity:0.2"></path><circle cx="396.42" cy="245.6" r="11.37" transform="translate(-64.77 176.49) rotate(-23.26)" style="fill:#407BFF"></circle><circle cx="396.42" cy="245.6" r="11.37" style="fill:#fff;opacity:0.4"></circle><path d="M387.49,242.32c.09,2.16,1.74,3.2,3.68,2.34a6.15,6.15,0,0,0,3.33-5.48c-.09-2.16-1.74-3.21-3.67-2.34A6.14,6.14,0,0,0,387.49,242.32Z" style="fill:#fff;opacity:0.1"></path><path d="M398.36,240.85a1.49,1.49,0,1,0,.88-1.9A1.49,1.49,0,0,0,398.36,240.85Z" style="fill:#fff;opacity:0.1"></path><path d="M401.09,253a1.26,1.26,0,0,0,1.62.76,1.27,1.27,0,0,0-.87-2.38A1.25,1.25,0,0,0,401.09,253Z" style="fill:#fff;opacity:0.1"></path><path d="M395.4,249.32a58.2,58.2,0,0,0,10.84,2,10.55,10.55,0,0,1-1.31,1.79c-3-.54-6.43-1.3-9.95-2.26s-6.83-2-9.73-3.11a10.13,10.13,0,0,1-.21-2.2A59.42,59.42,0,0,0,395.4,249.32Z" style="fill:#407BFF;opacity:0.5"></path><path d="M382.11,241.7c-.41,1.47,5.67,4.41,13.57,6.57s14.64,2.7,15,1.23l8.31,2.27c-.63,2.33-11.27,1.45-23.77-2s-22.1-8.05-21.46-10.38Z" style="fill:#407BFF"></path><path d="M223.34,283l-10.9,18,17.33-4.85,17.33-4.84-21.14-9A2.06,2.06,0,0,0,223.34,283Z" style="fill:#407BFF"></path><path d="M223.34,283l-10.9,18,17.33-4.85,17.33-4.84-21.14-9A2.06,2.06,0,0,0,223.34,283Z" style="fill:#fff;opacity:0.5"></path><path d="M255,314.46l-33,9.23a1.71,1.71,0,0,1-2-1.07l-7.87-20.73A1.37,1.37,0,0,1,213,300l33-9.22a1.7,1.7,0,0,1,2,1.07l7.87,20.73A1.36,1.36,0,0,1,255,314.46Z" style="fill:#407BFF"></path><path d="M255,314.46l-33,9.23a1.71,1.71,0,0,1-2-1.07l-7.87-20.73A1.37,1.37,0,0,1,213,300l33-9.22a1.7,1.7,0,0,1,2,1.07l7.87,20.73A1.36,1.36,0,0,1,255,314.46Z" style="fill:#fff;opacity:0.30000000000000004"></path><path d="M234.72,310.5l-19.95-9.62a.72.72,0,0,1,0-1.35l14.73-4.12,14.74-4.12a.8.8,0,0,1,.92,1.1l-9.52,17.86A.68.68,0,0,1,234.72,310.5Z" style="fill:#407BFF;opacity:0.2"></path><path d="M235.17,305.86a2.59,2.59,0,0,0-3.43,1L222,323.69l33-9.23Z" style="fill:#263238"></path><path d="M234.19,305.71l-12.21,18,16.5-4.61L255,314.46,236.69,305A2,2,0,0,0,234.19,305.71Z" style="fill:#407BFF"></path><path d="M236.69,305a2,2,0,0,0-2.5.7l-12.21,18,33-9.23Z" style="fill:#fff;opacity:0.12"></path></g></svg>